<mxfile host="app.diagrams.net" modified="2023-08-22T07:49:55.566Z" agent="Mozilla/5.0 (Windows NT 10.0; Win64; x64) AppleWebKit/537.36 (KHTML, like Gecko) Chrome/116.0.0.0 Safari/537.36" etag="RfI8R2jKm7uBf2olMOTw" version="21.6.8" type="github">
  <diagram name="第 1 页" id="ZJP7pnuowaYaBMKtd1gZ">
    <mxGraphModel dx="1050" dy="566" grid="0" gridSize="10" guides="1" tooltips="1" connect="1" arrows="1" fold="1" page="1" pageScale="1" pageWidth="827" pageHeight="1169" math="0" shadow="0">
      <root>
        <mxCell id="0" />
        <mxCell id="1" parent="0" />
        <mxCell id="eirxYekn0Ol0sUN4Ises-5" style="edgeStyle=orthogonalEdgeStyle;rounded=0;orthogonalLoop=1;jettySize=auto;html=1;" edge="1" parent="1">
          <mxGeometry relative="1" as="geometry">
            <mxPoint x="320.4000244140625" y="278" as="targetPoint" />
            <mxPoint x="247" y="278" as="sourcePoint" />
          </mxGeometry>
        </mxCell>
        <mxCell id="eirxYekn0Ol0sUN4Ises-1" value="生产者" style="rounded=1;whiteSpace=wrap;html=1;" vertex="1" parent="1">
          <mxGeometry x="127" y="258" width="120" height="60" as="geometry" />
        </mxCell>
        <mxCell id="eirxYekn0Ol0sUN4Ises-7" style="edgeStyle=orthogonalEdgeStyle;rounded=0;orthogonalLoop=1;jettySize=auto;html=1;exitX=0;exitY=0.5;exitDx=0;exitDy=0;entryX=1;entryY=0.5;entryDx=0;entryDy=0;" edge="1" parent="1">
          <mxGeometry relative="1" as="geometry">
            <mxPoint x="321" y="298" as="sourcePoint" />
            <mxPoint x="247" y="298" as="targetPoint" />
          </mxGeometry>
        </mxCell>
        <mxCell id="eirxYekn0Ol0sUN4Ises-8" style="edgeStyle=orthogonalEdgeStyle;rounded=0;orthogonalLoop=1;jettySize=auto;html=1;exitX=1;exitY=0.5;exitDx=0;exitDy=0;entryX=0;entryY=0.5;entryDx=0;entryDy=0;" edge="1" parent="1">
          <mxGeometry relative="1" as="geometry">
            <mxPoint x="441" y="278" as="sourcePoint" />
            <mxPoint x="515" y="278" as="targetPoint" />
          </mxGeometry>
        </mxCell>
        <mxCell id="eirxYekn0Ol0sUN4Ises-2" value="MQ主机" style="rounded=1;whiteSpace=wrap;html=1;" vertex="1" parent="1">
          <mxGeometry x="321" y="258" width="120" height="60" as="geometry" />
        </mxCell>
        <mxCell id="eirxYekn0Ol0sUN4Ises-9" style="edgeStyle=orthogonalEdgeStyle;rounded=0;orthogonalLoop=1;jettySize=auto;html=1;exitX=0;exitY=0.5;exitDx=0;exitDy=0;entryX=1;entryY=0.5;entryDx=0;entryDy=0;" edge="1" parent="1">
          <mxGeometry relative="1" as="geometry">
            <mxPoint x="515" y="298" as="sourcePoint" />
            <mxPoint x="441" y="298" as="targetPoint" />
          </mxGeometry>
        </mxCell>
        <mxCell id="eirxYekn0Ol0sUN4Ises-3" value="MQ从机" style="rounded=1;whiteSpace=wrap;html=1;" vertex="1" parent="1">
          <mxGeometry x="515" y="258" width="120" height="60" as="geometry" />
        </mxCell>
        <mxCell id="eirxYekn0Ol0sUN4Ises-12" value="同步消息" style="text;html=1;strokeColor=none;fillColor=none;align=center;verticalAlign=middle;whiteSpace=wrap;rounded=0;" vertex="1" parent="1">
          <mxGeometry x="252" y="248" width="60" height="30" as="geometry" />
        </mxCell>
        <mxCell id="eirxYekn0Ol0sUN4Ises-13" value="返回确认" style="text;html=1;strokeColor=none;fillColor=none;align=center;verticalAlign=middle;whiteSpace=wrap;rounded=0;" vertex="1" parent="1">
          <mxGeometry x="253" y="297" width="60" height="30" as="geometry" />
        </mxCell>
      </root>
    </mxGraphModel>
  </diagram>
</mxfile>
